<?xml version="1.0" encoding="UTF-8" standalone="no"?>
<!DOCTYPE svg PUBLIC "-//W3C//DTD SVG 1.1//EN"
 "http://www.w3.org/Graphics/SVG/1.1/DTD/svg11.dtd">
<!-- Generated by graphviz version 2.46.0 (20210118.1747)
 -->
<!-- Pages: 1 -->
<svg width="2608pt" height="479pt"
 viewBox="0.00 0.00 2608.00 479.00" xmlns="http://www.w3.org/2000/svg" xmlns:xlink="http://www.w3.org/1999/xlink">
<g id="graph0" class="graph" transform="scale(1 1) rotate(0) translate(4 475)">
<polygon fill="white" stroke="transparent" points="-4,4 -4,-475 2604,-475 2604,4 -4,4"/>
<!-- 3178507748992 -->
<g id="node1" class="node">
<title>3178507748992</title>
<ellipse fill="none" stroke="black" cx="1784" cy="-453" rx="51.99" ry="18"/>
<text text-anchor="middle" x="1784" y="-449.3" font-family="Times New Roman,serif" font-size="14.00">Hair_Color</text>
</g>
<!-- 3178507720896 -->
<g id="node2" class="node">
<title>3178507720896</title>
<ellipse fill="none" stroke="black" cx="460" cy="-366" rx="30.59" ry="18"/>
<text text-anchor="middle" x="460" y="-362.3" font-family="Times New Roman,serif" font-size="14.00">Adult</text>
</g>
<!-- 3178507748992&#45;&gt;3178507720896 -->
<g id="edge1" class="edge">
<title>3178507748992&#45;&gt;3178507720896</title>
<path fill="none" stroke="black" d="M1733.04,-449.09C1631.32,-443.26 1395.83,-429.61 1198,-417 931.69,-400.03 611.47,-377.66 500.32,-369.85"/>
<polygon fill="black" stroke="black" points="500.44,-366.35 490.22,-369.13 499.95,-373.33 500.44,-366.35"/>
<text text-anchor="middle" x="1227.5" y="-405.8" font-family="Times New Roman,serif" font-size="14.00">Black Hair</text>
</g>
<!-- 3178507747712 -->
<g id="node15" class="node">
<title>3178507747712</title>
<ellipse fill="none" stroke="black" cx="943" cy="-366" rx="46.59" ry="18"/>
<text text-anchor="middle" x="943" y="-362.3" font-family="Times New Roman,serif" font-size="14.00">Alchemist</text>
</g>
<!-- 3178507748992&#45;&gt;3178507747712 -->
<g id="edge14" class="edge">
<title>3178507748992&#45;&gt;3178507747712</title>
<path fill="none" stroke="black" d="M1734,-447.77C1660.39,-441.48 1518.52,-429.08 1398,-417 1253.06,-402.47 1082.41,-383.11 997.18,-373.29"/>
<polygon fill="black" stroke="black" points="997.55,-369.81 987.21,-372.14 996.75,-376.76 997.55,-369.81"/>
<text text-anchor="middle" x="1431.5" y="-405.8" font-family="Times New Roman,serif" font-size="14.00">Blonde Hair</text>
</g>
<!-- 3178507828928 -->
<g id="node22" class="node">
<title>3178507828928</title>
<ellipse fill="none" stroke="black" cx="1220" cy="-366" rx="46.29" ry="18"/>
<text text-anchor="middle" x="1220" y="-362.3" font-family="Times New Roman,serif" font-size="14.00">Analytical</text>
</g>
<!-- 3178507748992&#45;&gt;3178507828928 -->
<g id="edge21" class="edge">
<title>3178507748992&#45;&gt;3178507828928</title>
<path fill="none" stroke="black" d="M1737.37,-444.97C1633.18,-429.27 1382.09,-391.43 1272.57,-374.92"/>
<polygon fill="black" stroke="black" points="1272.83,-371.42 1262.42,-373.39 1271.78,-378.34 1272.83,-371.42"/>
<text text-anchor="middle" x="1568.5" y="-405.8" font-family="Times New Roman,serif" font-size="14.00">Brown Hair</text>
</g>
<!-- 3178507751296 -->
<g id="node25" class="node">
<title>3178507751296</title>
<ellipse fill="none" stroke="black" cx="1566" cy="-366" rx="37.89" ry="18"/>
<text text-anchor="middle" x="1566" y="-362.3" font-family="Times New Roman,serif" font-size="14.00">Gender</text>
</g>
<!-- 3178507748992&#45;&gt;3178507751296 -->
<g id="edge24" class="edge">
<title>3178507748992&#45;&gt;3178507751296</title>
<path fill="none" stroke="black" d="M1747.41,-440.2C1727.87,-433.7 1703.48,-425.3 1682,-417 1654.79,-406.49 1624.55,-393.4 1601.76,-383.25"/>
<polygon fill="black" stroke="black" points="1603.04,-379.99 1592.48,-379.1 1600.18,-386.38 1603.04,-379.99"/>
<text text-anchor="middle" x="1708" y="-405.8" font-family="Times New Roman,serif" font-size="14.00">Pink Hair</text>
</g>
<!-- 3178507756288 -->
<g id="node28" class="node">
<title>3178507756288</title>
<ellipse fill="none" stroke="black" cx="1708" cy="-366" rx="46.29" ry="18"/>
<text text-anchor="middle" x="1708" y="-362.3" font-family="Times New Roman,serif" font-size="14.00">Analytical</text>
</g>
<!-- 3178507748992&#45;&gt;3178507756288 -->
<g id="edge27" class="edge">
<title>3178507748992&#45;&gt;3178507756288</title>
<path fill="none" stroke="black" d="M1768.4,-435.76C1762.85,-429.9 1756.59,-423.21 1751,-417 1743.53,-408.71 1735.51,-399.48 1728.45,-391.23"/>
<polygon fill="black" stroke="black" points="1730.91,-388.72 1721.76,-383.38 1725.58,-393.26 1730.91,-388.72"/>
<text text-anchor="middle" x="1781.5" y="-405.8" font-family="Times New Roman,serif" font-size="14.00">Green Hair</text>
</g>
<!-- 3178506950192 -->
<g id="node31" class="node">
<title>3178506950192</title>
<polygon fill="none" stroke="black" points="1937.5,-384 1772.5,-384 1772.5,-348 1937.5,-348 1937.5,-384"/>
<text text-anchor="middle" x="1855" y="-362.3" font-family="Times New Roman,serif" font-size="14.00">Class: Ichigo KUROSAKI</text>
</g>
<!-- 3178507748992&#45;&gt;3178506950192 -->
<g id="edge30" class="edge">
<title>3178507748992&#45;&gt;3178506950192</title>
<path fill="none" stroke="black" d="M1797.69,-435.61C1808,-423.27 1822.31,-406.14 1834.05,-392.08"/>
<polygon fill="black" stroke="black" points="1836.9,-394.13 1840.62,-384.21 1831.52,-389.64 1836.9,-394.13"/>
<text text-anchor="middle" x="1858" y="-405.8" font-family="Times New Roman,serif" font-size="14.00">Orange Hair</text>
</g>
<!-- 3178506950384 -->
<g id="node32" class="node">
<title>3178506950384</title>
<polygon fill="none" stroke="black" points="2054,-384 1956,-384 1956,-348 2054,-348 2054,-384"/>
<text text-anchor="middle" x="2005" y="-362.3" font-family="Times New Roman,serif" font-size="14.00">Class: Saitama</text>
</g>
<!-- 3178507748992&#45;&gt;3178506950384 -->
<g id="edge31" class="edge">
<title>3178507748992&#45;&gt;3178506950384</title>
<path fill="none" stroke="black" d="M1823.29,-441.05C1844.97,-434.68 1872.23,-426.12 1896,-417 1917.98,-408.56 1941.81,-397.82 1961.57,-388.46"/>
<polygon fill="black" stroke="black" points="1963.12,-391.6 1970.63,-384.13 1960.1,-385.29 1963.12,-391.6"/>
<text text-anchor="middle" x="1939" y="-405.8" font-family="Times New Roman,serif" font-size="14.00">nan</text>
</g>
<!-- 3178507758272 -->
<g id="node33" class="node">
<title>3178507758272</title>
<ellipse fill="none" stroke="black" cx="2114" cy="-366" rx="42.49" ry="18"/>
<text text-anchor="middle" x="2114" y="-362.3" font-family="Times New Roman,serif" font-size="14.00">Amnesia</text>
</g>
<!-- 3178507748992&#45;&gt;3178507758272 -->
<g id="edge32" class="edge">
<title>3178507748992&#45;&gt;3178507758272</title>
<path fill="none" stroke="black" d="M1829.08,-443.77C1863.26,-437.27 1911.32,-427.55 1953,-417 2002.48,-404.48 2014.34,-399.41 2063,-384 2066.07,-383.03 2069.24,-382.01 2072.42,-380.97"/>
<polygon fill="black" stroke="black" points="2073.54,-384.29 2081.95,-377.85 2071.35,-377.64 2073.54,-384.29"/>
<text text-anchor="middle" x="2055.5" y="-405.8" font-family="Times New Roman,serif" font-size="14.00">Multicolored Hair</text>
</g>
<!-- 3178507751360 -->
<g id="node36" class="node">
<title>3178507751360</title>
<ellipse fill="none" stroke="black" cx="2233" cy="-366" rx="30.59" ry="18"/>
<text text-anchor="middle" x="2233" y="-362.3" font-family="Times New Roman,serif" font-size="14.00">Adult</text>
</g>
<!-- 3178507748992&#45;&gt;3178507751360 -->
<g id="edge35" class="edge">
<title>3178507748992&#45;&gt;3178507751360</title>
<path fill="none" stroke="black" d="M1835.71,-450.81C1900.48,-448.33 2014.45,-440.67 2109,-417 2141.4,-408.89 2176.56,-394.1 2201.13,-382.7"/>
<polygon fill="black" stroke="black" points="2202.78,-385.79 2210.33,-378.36 2199.79,-379.46 2202.78,-385.79"/>
<text text-anchor="middle" x="2184.5" y="-405.8" font-family="Times New Roman,serif" font-size="14.00">White Hair</text>
</g>
<!-- 3178506950960 -->
<g id="node41" class="node">
<title>3178506950960</title>
<polygon fill="none" stroke="black" points="2376.5,-384 2281.5,-384 2281.5,-348 2376.5,-348 2376.5,-384"/>
<text text-anchor="middle" x="2329" y="-362.3" font-family="Times New Roman,serif" font-size="14.00">Class: Shanks</text>
</g>
<!-- 3178507748992&#45;&gt;3178506950960 -->
<g id="edge40" class="edge">
<title>3178507748992&#45;&gt;3178506950960</title>
<path fill="none" stroke="black" d="M1835.67,-450.08C1934.73,-446.03 2147.86,-435.43 2219,-417 2243.48,-410.66 2269.29,-399.2 2289.76,-388.86"/>
<polygon fill="black" stroke="black" points="2291.48,-391.9 2298.76,-384.2 2288.27,-385.69 2291.48,-391.9"/>
<text text-anchor="middle" x="2284.5" y="-405.8" font-family="Times New Roman,serif" font-size="14.00">Red Hair</text>
</g>
<!-- 3178507742016 -->
<g id="node3" class="node">
<title>3178507742016</title>
<ellipse fill="none" stroke="black" cx="303" cy="-279" rx="44.39" ry="18"/>
<text text-anchor="middle" x="303" y="-275.3" font-family="Times New Roman,serif" font-size="14.00">Big Eater</text>
</g>
<!-- 3178507720896&#45;&gt;3178507742016 -->
<g id="edge2" class="edge">
<title>3178507720896&#45;&gt;3178507742016</title>
<path fill="none" stroke="black" d="M438.17,-353.18C412.13,-339.08 368.28,-315.34 337.61,-298.74"/>
<polygon fill="black" stroke="black" points="339.01,-295.51 328.55,-293.83 335.67,-301.67 339.01,-295.51"/>
<text text-anchor="middle" x="394.5" y="-318.8" font-family="Times New Roman,serif" font-size="14.00">0</text>
</g>
<!-- 3178507756096 -->
<g id="node12" class="node">
<title>3178507756096</title>
<ellipse fill="none" stroke="black" cx="460" cy="-279" rx="29.5" ry="18"/>
<text text-anchor="middle" x="460" y="-275.3" font-family="Times New Roman,serif" font-size="14.00">Alien</text>
</g>
<!-- 3178507720896&#45;&gt;3178507756096 -->
<g id="edge11" class="edge">
<title>3178507720896&#45;&gt;3178507756096</title>
<path fill="none" stroke="black" d="M460,-347.8C460,-336.16 460,-320.55 460,-307.24"/>
<polygon fill="black" stroke="black" points="463.5,-307.18 460,-297.18 456.5,-307.18 463.5,-307.18"/>
<text text-anchor="middle" x="463.5" y="-318.8" font-family="Times New Roman,serif" font-size="14.00">1</text>
</g>
<!-- 3178507758912 -->
<g id="node4" class="node">
<title>3178507758912</title>
<ellipse fill="none" stroke="black" cx="154" cy="-192" rx="46.29" ry="18"/>
<text text-anchor="middle" x="154" y="-188.3" font-family="Times New Roman,serif" font-size="14.00">Analytical</text>
</g>
<!-- 3178507742016&#45;&gt;3178507758912 -->
<g id="edge3" class="edge">
<title>3178507742016&#45;&gt;3178507758912</title>
<path fill="none" stroke="black" d="M278.4,-263.96C253.74,-249.9 215.59,-228.14 188.04,-212.42"/>
<polygon fill="black" stroke="black" points="189.56,-209.26 179.14,-207.34 186.09,-215.34 189.56,-209.26"/>
<text text-anchor="middle" x="241.5" y="-231.8" font-family="Times New Roman,serif" font-size="14.00">0</text>
</g>
<!-- 3178507825792 -->
<g id="node9" class="node">
<title>3178507825792</title>
<ellipse fill="none" stroke="black" cx="303" cy="-192" rx="38.99" ry="18"/>
<text text-anchor="middle" x="303" y="-188.3" font-family="Times New Roman,serif" font-size="14.00">Airhead</text>
</g>
<!-- 3178507742016&#45;&gt;3178507825792 -->
<g id="edge8" class="edge">
<title>3178507742016&#45;&gt;3178507825792</title>
<path fill="none" stroke="black" d="M303,-260.8C303,-249.16 303,-233.55 303,-220.24"/>
<polygon fill="black" stroke="black" points="306.5,-220.18 303,-210.18 299.5,-220.18 306.5,-220.18"/>
<text text-anchor="middle" x="306.5" y="-231.8" font-family="Times New Roman,serif" font-size="14.00">1</text>
</g>
<!-- 3180213870960 -->
<g id="node5" class="node">
<title>3180213870960</title>
<polygon fill="none" stroke="black" points="81,-123 19,-123 19,-87 81,-87 81,-123"/>
<text text-anchor="middle" x="50" y="-101.3" font-family="Times New Roman,serif" font-size="14.00">Class: L</text>
</g>
<!-- 3178507758912&#45;&gt;3180213870960 -->
<g id="edge4" class="edge">
<title>3178507758912&#45;&gt;3180213870960</title>
<path fill="none" stroke="black" d="M134.92,-175.41C119.26,-162.61 96.83,-144.27 78.95,-129.66"/>
<polygon fill="black" stroke="black" points="81.06,-126.86 71.1,-123.25 76.63,-132.28 81.06,-126.86"/>
<text text-anchor="middle" x="112.5" y="-144.8" font-family="Times New Roman,serif" font-size="14.00">1</text>
</g>
<!-- 3178507828800 -->
<g id="node6" class="node">
<title>3178507828800</title>
<ellipse fill="none" stroke="black" cx="154" cy="-105" rx="54.69" ry="18"/>
<text text-anchor="middle" x="154" y="-101.3" font-family="Times New Roman,serif" font-size="14.00">Beastmaster</text>
</g>
<!-- 3178507758912&#45;&gt;3178507828800 -->
<g id="edge5" class="edge">
<title>3178507758912&#45;&gt;3178507828800</title>
<path fill="none" stroke="black" d="M154,-173.8C154,-162.16 154,-146.55 154,-133.24"/>
<polygon fill="black" stroke="black" points="157.5,-133.18 154,-123.18 150.5,-133.18 157.5,-133.18"/>
<text text-anchor="middle" x="157.5" y="-144.8" font-family="Times New Roman,serif" font-size="14.00">0</text>
</g>
<!-- 3178506949808 -->
<g id="node7" class="node">
<title>3178506949808</title>
<polygon fill="none" stroke="black" points="142,-36 0,-36 0,0 142,0 142,-36"/>
<text text-anchor="middle" x="71" y="-14.3" font-family="Times New Roman,serif" font-size="14.00">Class: Itachi UCHIHA</text>
</g>
<!-- 3178507828800&#45;&gt;3178506949808 -->
<g id="edge6" class="edge">
<title>3178507828800&#45;&gt;3178506949808</title>
<path fill="none" stroke="black" d="M138,-87.61C125.83,-75.16 108.9,-57.81 95.1,-43.68"/>
<polygon fill="black" stroke="black" points="97.3,-40.92 87.81,-36.21 92.29,-45.81 97.3,-40.92"/>
<text text-anchor="middle" x="121.5" y="-57.8" font-family="Times New Roman,serif" font-size="14.00">1</text>
</g>
<!-- 3178506950256 -->
<g id="node8" class="node">
<title>3178506950256</title>
<polygon fill="none" stroke="black" points="311.5,-36 160.5,-36 160.5,0 311.5,0 311.5,-36"/>
<text text-anchor="middle" x="236" y="-14.3" font-family="Times New Roman,serif" font-size="14.00">Class: Sasuke UCHIHA</text>
</g>
<!-- 3178507828800&#45;&gt;3178506950256 -->
<g id="edge7" class="edge">
<title>3178507828800&#45;&gt;3178506950256</title>
<path fill="none" stroke="black" d="M169.81,-87.61C181.83,-75.16 198.56,-57.81 212.19,-43.68"/>
<polygon fill="black" stroke="black" points="214.97,-45.84 219.39,-36.21 209.93,-40.98 214.97,-45.84"/>
<text text-anchor="middle" x="203.5" y="-57.8" font-family="Times New Roman,serif" font-size="14.00">0</text>
</g>
<!-- 3178506949936 -->
<g id="node10" class="node">
<title>3178506949936</title>
<polygon fill="none" stroke="black" points="379,-123 227,-123 227,-87 379,-87 379,-123"/>
<text text-anchor="middle" x="303" y="-101.3" font-family="Times New Roman,serif" font-size="14.00">Class: Monkey D. Luffy</text>
</g>
<!-- 3178507825792&#45;&gt;3178506949936 -->
<g id="edge9" class="edge">
<title>3178507825792&#45;&gt;3178506949936</title>
<path fill="none" stroke="black" d="M303,-173.8C303,-162.16 303,-146.55 303,-133.24"/>
<polygon fill="black" stroke="black" points="306.5,-133.18 303,-123.18 299.5,-133.18 306.5,-133.18"/>
<text text-anchor="middle" x="306.5" y="-144.8" font-family="Times New Roman,serif" font-size="14.00">1</text>
</g>
<!-- 3178506950512 -->
<g id="node11" class="node">
<title>3178506950512</title>
<polygon fill="none" stroke="black" points="515,-123 397,-123 397,-87 515,-87 515,-123"/>
<text text-anchor="middle" x="456" y="-101.3" font-family="Times New Roman,serif" font-size="14.00">Class: Goku SON</text>
</g>
<!-- 3178507825792&#45;&gt;3178506950512 -->
<g id="edge10" class="edge">
<title>3178507825792&#45;&gt;3178506950512</title>
<path fill="none" stroke="black" d="M326.91,-177.72C350.8,-164.45 387.95,-143.81 416.27,-128.07"/>
<polygon fill="black" stroke="black" points="418.09,-131.07 425.13,-123.15 414.69,-124.95 418.09,-131.07"/>
<text text-anchor="middle" x="392.5" y="-144.8" font-family="Times New Roman,serif" font-size="14.00">0</text>
</g>
<!-- 3178506949616 -->
<g id="node13" class="node">
<title>3178506949616</title>
<polygon fill="none" stroke="black" points="438,-210 360,-210 360,-174 438,-174 438,-210"/>
<text text-anchor="middle" x="399" y="-188.3" font-family="Times New Roman,serif" font-size="14.00">Class: Levi</text>
</g>
<!-- 3178507756096&#45;&gt;3178506949616 -->
<g id="edge12" class="edge">
<title>3178507756096&#45;&gt;3178506949616</title>
<path fill="none" stroke="black" d="M448.53,-262.01C439.72,-249.75 427.4,-232.57 417.25,-218.43"/>
<polygon fill="black" stroke="black" points="419.93,-216.17 411.26,-210.08 414.25,-220.25 419.93,-216.17"/>
<text text-anchor="middle" x="437.5" y="-231.8" font-family="Times New Roman,serif" font-size="14.00">0</text>
</g>
<!-- 3178506950704 -->
<g id="node14" class="node">
<title>3178506950704</title>
<polygon fill="none" stroke="black" points="548,-210 456,-210 456,-174 548,-174 548,-210"/>
<text text-anchor="middle" x="502" y="-188.3" font-family="Times New Roman,serif" font-size="14.00">Class: Vegeta</text>
</g>
<!-- 3178507756096&#45;&gt;3178506950704 -->
<g id="edge13" class="edge">
<title>3178507756096&#45;&gt;3178506950704</title>
<path fill="none" stroke="black" d="M468.1,-261.61C474.02,-249.62 482.19,-233.09 489.02,-219.27"/>
<polygon fill="black" stroke="black" points="492.2,-220.73 493.49,-210.21 485.93,-217.63 492.2,-220.73"/>
<text text-anchor="middle" x="487.5" y="-231.8" font-family="Times New Roman,serif" font-size="14.00">1</text>
</g>
<!-- 3178507750208 -->
<g id="node16" class="node">
<title>3178507750208</title>
<ellipse fill="none" stroke="black" cx="802" cy="-279" rx="59.59" ry="18"/>
<text text-anchor="middle" x="802" y="-275.3" font-family="Times New Roman,serif" font-size="14.00">Animal Lover</text>
</g>
<!-- 3178507747712&#45;&gt;3178507750208 -->
<g id="edge15" class="edge">
<title>3178507747712&#45;&gt;3178507750208</title>
<path fill="none" stroke="black" d="M918.76,-350.39C896.08,-336.72 861.97,-316.15 836.46,-300.77"/>
<polygon fill="black" stroke="black" points="838.2,-297.74 827.83,-295.57 834.59,-303.73 838.2,-297.74"/>
<text text-anchor="middle" x="884.5" y="-318.8" font-family="Times New Roman,serif" font-size="14.00">1</text>
</g>
<!-- 3178507825408 -->
<g id="node19" class="node">
<title>3178507825408</title>
<ellipse fill="none" stroke="black" cx="943" cy="-279" rx="30.59" ry="18"/>
<text text-anchor="middle" x="943" y="-275.3" font-family="Times New Roman,serif" font-size="14.00">Adult</text>
</g>
<!-- 3178507747712&#45;&gt;3178507825408 -->
<g id="edge18" class="edge">
<title>3178507747712&#45;&gt;3178507825408</title>
<path fill="none" stroke="black" d="M943,-347.8C943,-336.16 943,-320.55 943,-307.24"/>
<polygon fill="black" stroke="black" points="946.5,-307.18 943,-297.18 939.5,-307.18 946.5,-307.18"/>
<text text-anchor="middle" x="946.5" y="-318.8" font-family="Times New Roman,serif" font-size="14.00">0</text>
</g>
<!-- 3178506949552 -->
<g id="node17" class="node">
<title>3178506949552</title>
<polygon fill="none" stroke="black" points="708,-210 566,-210 566,-174 708,-174 708,-210"/>
<text text-anchor="middle" x="637" y="-188.3" font-family="Times New Roman,serif" font-size="14.00">Class: Edward ELRIC</text>
</g>
<!-- 3178507750208&#45;&gt;3178506949552 -->
<g id="edge16" class="edge">
<title>3178507750208&#45;&gt;3178506949552</title>
<path fill="none" stroke="black" d="M773.26,-263.19C747.35,-249.85 708.91,-230.04 679.45,-214.87"/>
<polygon fill="black" stroke="black" points="680.73,-211.59 670.24,-210.12 677.52,-217.81 680.73,-211.59"/>
<text text-anchor="middle" x="733.5" y="-231.8" font-family="Times New Roman,serif" font-size="14.00">0</text>
</g>
<!-- 3178506950000 -->
<g id="node18" class="node">
<title>3178506950000</title>
<polygon fill="none" stroke="black" points="878,-210 726,-210 726,-174 878,-174 878,-210"/>
<text text-anchor="middle" x="802" y="-188.3" font-family="Times New Roman,serif" font-size="14.00">Class: Alphonse ELRIC</text>
</g>
<!-- 3178507750208&#45;&gt;3178506950000 -->
<g id="edge17" class="edge">
<title>3178507750208&#45;&gt;3178506950000</title>
<path fill="none" stroke="black" d="M802,-260.8C802,-249.16 802,-233.55 802,-220.24"/>
<polygon fill="black" stroke="black" points="805.5,-220.18 802,-210.18 798.5,-220.18 805.5,-220.18"/>
<text text-anchor="middle" x="805.5" y="-231.8" font-family="Times New Roman,serif" font-size="14.00">1</text>
</g>
<!-- 3178506949744 -->
<g id="node20" class="node">
<title>3178506949744</title>
<polygon fill="none" stroke="black" points="1056,-210 896,-210 896,-174 1056,-174 1056,-210"/>
<text text-anchor="middle" x="976" y="-188.3" font-family="Times New Roman,serif" font-size="14.00">Class: Naruto UZUMAKI</text>
</g>
<!-- 3178507825408&#45;&gt;3178506949744 -->
<g id="edge19" class="edge">
<title>3178507825408&#45;&gt;3178506949744</title>
<path fill="none" stroke="black" d="M949.52,-261.21C954.14,-249.29 960.45,-233.06 965.74,-219.42"/>
<polygon fill="black" stroke="black" points="969.02,-220.64 969.38,-210.05 962.5,-218.1 969.02,-220.64"/>
<text text-anchor="middle" x="965.5" y="-231.8" font-family="Times New Roman,serif" font-size="14.00">0</text>
</g>
<!-- 3178506950896 -->
<g id="node21" class="node">
<title>3178506950896</title>
<polygon fill="none" stroke="black" points="1180,-210 1074,-210 1074,-174 1180,-174 1180,-210"/>
<text text-anchor="middle" x="1127" y="-188.3" font-family="Times New Roman,serif" font-size="14.00">Class: All Might</text>
</g>
<!-- 3178507825408&#45;&gt;3178506950896 -->
<g id="edge20" class="edge">
<title>3178507825408&#45;&gt;3178506950896</title>
<path fill="none" stroke="black" d="M966.3,-267.23C994.89,-254.03 1044.03,-231.33 1080.46,-214.5"/>
<polygon fill="black" stroke="black" points="1082.29,-217.51 1089.9,-210.14 1079.35,-211.16 1082.29,-217.51"/>
<text text-anchor="middle" x="1050.5" y="-231.8" font-family="Times New Roman,serif" font-size="14.00">1</text>
</g>
<!-- 3178506949680 -->
<g id="node23" class="node">
<title>3178506949680</title>
<polygon fill="none" stroke="black" points="1134.5,-297 991.5,-297 991.5,-261 1134.5,-261 1134.5,-297"/>
<text text-anchor="middle" x="1063" y="-275.3" font-family="Times New Roman,serif" font-size="14.00">Class: Light YAGAMI</text>
</g>
<!-- 3178507828928&#45;&gt;3178506949680 -->
<g id="edge22" class="edge">
<title>3178507828928&#45;&gt;3178506949680</title>
<path fill="none" stroke="black" d="M1194.07,-350.96C1169.48,-337.65 1132.13,-317.43 1103.59,-301.97"/>
<polygon fill="black" stroke="black" points="1105.12,-298.82 1094.66,-297.14 1101.78,-304.98 1105.12,-298.82"/>
<text text-anchor="middle" x="1154.5" y="-318.8" font-family="Times New Roman,serif" font-size="14.00">1</text>
</g>
<!-- 3178506950128 -->
<g id="node24" class="node">
<title>3178506950128</title>
<polygon fill="none" stroke="black" points="1287.5,-297 1152.5,-297 1152.5,-261 1287.5,-261 1287.5,-297"/>
<text text-anchor="middle" x="1220" y="-275.3" font-family="Times New Roman,serif" font-size="14.00">Class: Eren JAEGER</text>
</g>
<!-- 3178507828928&#45;&gt;3178506950128 -->
<g id="edge23" class="edge">
<title>3178507828928&#45;&gt;3178506950128</title>
<path fill="none" stroke="black" d="M1220,-347.8C1220,-336.16 1220,-320.55 1220,-307.24"/>
<polygon fill="black" stroke="black" points="1223.5,-307.18 1220,-297.18 1216.5,-307.18 1223.5,-307.18"/>
<text text-anchor="middle" x="1223.5" y="-318.8" font-family="Times New Roman,serif" font-size="14.00">0</text>
</g>
<!-- 3178506949872 -->
<g id="node26" class="node">
<title>3178506949872</title>
<polygon fill="none" stroke="black" points="1470,-297 1306,-297 1306,-261 1470,-261 1470,-297"/>
<text text-anchor="middle" x="1388" y="-275.3" font-family="Times New Roman,serif" font-size="14.00">Class: Natsu DRAGNEEL</text>
</g>
<!-- 3178507751296&#45;&gt;3178506949872 -->
<g id="edge25" class="edge">
<title>3178507751296&#45;&gt;3178506949872</title>
<path fill="none" stroke="black" d="M1540.12,-352.64C1512.09,-339.26 1466.86,-317.66 1432.99,-301.48"/>
<polygon fill="black" stroke="black" points="1434.29,-298.23 1423.76,-297.08 1431.28,-304.54 1434.29,-298.23"/>
<text text-anchor="middle" x="1502" y="-318.8" font-family="Times New Roman,serif" font-size="14.00">Male</text>
</g>
<!-- 3178506950640 -->
<g id="node27" class="node">
<title>3178506950640</title>
<polygon fill="none" stroke="black" points="1643.5,-297 1488.5,-297 1488.5,-261 1643.5,-261 1643.5,-297"/>
<text text-anchor="middle" x="1566" y="-275.3" font-family="Times New Roman,serif" font-size="14.00">Class: Sakura HARUNO</text>
</g>
<!-- 3178507751296&#45;&gt;3178506950640 -->
<g id="edge26" class="edge">
<title>3178507751296&#45;&gt;3178506950640</title>
<path fill="none" stroke="black" d="M1566,-347.8C1566,-336.16 1566,-320.55 1566,-307.24"/>
<polygon fill="black" stroke="black" points="1569.5,-307.18 1566,-297.18 1562.5,-307.18 1569.5,-307.18"/>
<text text-anchor="middle" x="1586" y="-318.8" font-family="Times New Roman,serif" font-size="14.00">Female</text>
</g>
<!-- 3178506950064 -->
<g id="node29" class="node">
<title>3178506950064</title>
<polygon fill="none" stroke="black" points="1818,-297 1662,-297 1662,-261 1818,-261 1818,-297"/>
<text text-anchor="middle" x="1740" y="-275.3" font-family="Times New Roman,serif" font-size="14.00">Class: Zoro RORONOA</text>
</g>
<!-- 3178507756288&#45;&gt;3178506950064 -->
<g id="edge28" class="edge">
<title>3178507756288&#45;&gt;3178506950064</title>
<path fill="none" stroke="black" d="M1714.48,-347.8C1718.9,-336.05 1724.85,-320.24 1729.89,-306.84"/>
<polygon fill="black" stroke="black" points="1733.29,-307.77 1733.53,-297.18 1726.74,-305.3 1733.29,-307.77"/>
<text text-anchor="middle" x="1729.5" y="-318.8" font-family="Times New Roman,serif" font-size="14.00">0</text>
</g>
<!-- 3178506950320 -->
<g id="node30" class="node">
<title>3178506950320</title>
<polygon fill="none" stroke="black" points="1995.5,-297 1836.5,-297 1836.5,-261 1995.5,-261 1995.5,-297"/>
<text text-anchor="middle" x="1916" y="-275.3" font-family="Times New Roman,serif" font-size="14.00">Class: Izuku MIDORIYA</text>
</g>
<!-- 3178507756288&#45;&gt;3178506950320 -->
<g id="edge29" class="edge">
<title>3178507756288&#45;&gt;3178506950320</title>
<path fill="none" stroke="black" d="M1738.69,-352.46C1771.72,-338.96 1824.8,-317.27 1864.3,-301.13"/>
<polygon fill="black" stroke="black" points="1866.09,-304.18 1874.02,-297.15 1863.44,-297.7 1866.09,-304.18"/>
<text text-anchor="middle" x="1828.5" y="-318.8" font-family="Times New Roman,serif" font-size="14.00">1</text>
</g>
<!-- 3178506950448 -->
<g id="node34" class="node">
<title>3178506950448</title>
<polygon fill="none" stroke="black" points="2148,-297 2014,-297 2014,-261 2148,-261 2148,-297"/>
<text text-anchor="middle" x="2081" y="-275.3" font-family="Times New Roman,serif" font-size="14.00">Class: Ash&#39;s Pikachu</text>
</g>
<!-- 3178507758272&#45;&gt;3178506950448 -->
<g id="edge33" class="edge">
<title>3178507758272&#45;&gt;3178506950448</title>
<path fill="none" stroke="black" d="M2107.48,-348.21C2102.86,-336.29 2096.55,-320.06 2091.26,-306.42"/>
<polygon fill="black" stroke="black" points="2094.5,-305.1 2087.62,-297.05 2087.98,-307.64 2094.5,-305.1"/>
<text text-anchor="middle" x="2102.5" y="-318.8" font-family="Times New Roman,serif" font-size="14.00">0</text>
</g>
<!-- 3178506951024 -->
<g id="node35" class="node">
<title>3178506951024</title>
<polygon fill="none" stroke="black" points="2279.5,-297 2166.5,-297 2166.5,-261 2279.5,-261 2279.5,-297"/>
<text text-anchor="middle" x="2223" y="-275.3" font-family="Times New Roman,serif" font-size="14.00">Class: Yami Yugi</text>
</g>
<!-- 3178507758272&#45;&gt;3178506951024 -->
<g id="edge34" class="edge">
<title>3178507758272&#45;&gt;3178506951024</title>
<path fill="none" stroke="black" d="M2133.49,-349.8C2150.02,-336.91 2174.02,-318.2 2193,-303.39"/>
<polygon fill="black" stroke="black" points="2195.33,-306.02 2201.06,-297.11 2191.02,-300.5 2195.33,-306.02"/>
<text text-anchor="middle" x="2178.5" y="-318.8" font-family="Times New Roman,serif" font-size="14.00">1</text>
</g>
<!-- 3178506950576 -->
<g id="node37" class="node">
<title>3178506950576</title>
<polygon fill="none" stroke="black" points="2428.5,-297 2297.5,-297 2297.5,-261 2428.5,-261 2428.5,-297"/>
<text text-anchor="middle" x="2363" y="-275.3" font-family="Times New Roman,serif" font-size="14.00">Class: Satoru GOJO</text>
</g>
<!-- 3178507751360&#45;&gt;3178506950576 -->
<g id="edge36" class="edge">
<title>3178507751360&#45;&gt;3178506950576</title>
<path fill="none" stroke="black" d="M2252.74,-352.09C2272.73,-339.02 2304.06,-318.54 2328.22,-302.74"/>
<polygon fill="black" stroke="black" points="2330.31,-305.56 2336.77,-297.15 2326.48,-299.7 2330.31,-305.56"/>
<text text-anchor="middle" x="2308.5" y="-318.8" font-family="Times New Roman,serif" font-size="14.00">1</text>
</g>
<!-- 3178507756800 -->
<g id="node38" class="node">
<title>3178507756800</title>
<ellipse fill="none" stroke="black" cx="2493" cy="-279" rx="46.29" ry="18"/>
<text text-anchor="middle" x="2493" y="-275.3" font-family="Times New Roman,serif" font-size="14.00">Analytical</text>
</g>
<!-- 3178507751360&#45;&gt;3178507756800 -->
<g id="edge37" class="edge">
<title>3178507751360&#45;&gt;3178507756800</title>
<path fill="none" stroke="black" d="M2256.95,-354.35C2262.2,-352.15 2267.76,-349.92 2273,-348 2273.53,-347.81 2383.65,-313.78 2447.87,-293.94"/>
<polygon fill="black" stroke="black" points="2449.24,-297.18 2457.76,-290.89 2447.17,-290.49 2449.24,-297.18"/>
<text text-anchor="middle" x="2379.5" y="-318.8" font-family="Times New Roman,serif" font-size="14.00">0</text>
</g>
<!-- 3178506950768 -->
<g id="node39" class="node">
<title>3178506950768</title>
<polygon fill="none" stroke="black" points="2478,-210 2398,-210 2398,-174 2478,-174 2478,-210"/>
<text text-anchor="middle" x="2438" y="-188.3" font-family="Times New Roman,serif" font-size="14.00">Class: Near</text>
</g>
<!-- 3178507756800&#45;&gt;3178506950768 -->
<g id="edge38" class="edge">
<title>3178507756800&#45;&gt;3178506950768</title>
<path fill="none" stroke="black" d="M2482.13,-261.21C2474.28,-249.06 2463.51,-232.43 2454.59,-218.63"/>
<polygon fill="black" stroke="black" points="2457.4,-216.54 2449.03,-210.05 2451.53,-220.35 2457.4,-216.54"/>
<text text-anchor="middle" x="2471.5" y="-231.8" font-family="Times New Roman,serif" font-size="14.00">1</text>
</g>
<!-- 3178506950832 -->
<g id="node40" class="node">
<title>3178506950832</title>
<polygon fill="none" stroke="black" points="2600,-210 2496,-210 2496,-174 2600,-174 2600,-210"/>
<text text-anchor="middle" x="2548" y="-188.3" font-family="Times New Roman,serif" font-size="14.00">Class: Inuyasha</text>
</g>
<!-- 3178507756800&#45;&gt;3178506950832 -->
<g id="edge39" class="edge">
<title>3178507756800&#45;&gt;3178506950832</title>
<path fill="none" stroke="black" d="M2503.87,-261.21C2511.72,-249.06 2522.49,-232.43 2531.41,-218.63"/>
<polygon fill="black" stroke="black" points="2534.47,-220.35 2536.97,-210.05 2528.6,-216.54 2534.47,-220.35"/>
<text text-anchor="middle" x="2526.5" y="-231.8" font-family="Times New Roman,serif" font-size="14.00">0</text>
</g>
</g>
</svg>
