<?xml version="1.0" encoding="UTF-8" standalone="no"?>
<!DOCTYPE svg PUBLIC "-//W3C//DTD SVG 1.1//EN"
 "http://www.w3.org/Graphics/SVG/1.1/DTD/svg11.dtd">
<!-- Generated by graphviz version 2.46.0 (20210118.1747)
 -->
<!-- Pages: 1 -->
<svg width="273pt" height="218pt"
 viewBox="0.00 0.00 272.50 218.00" xmlns="http://www.w3.org/2000/svg" xmlns:xlink="http://www.w3.org/1999/xlink">
<g id="graph0" class="graph" transform="scale(1 1) rotate(0) translate(4 214)">
<polygon fill="white" stroke="transparent" points="-4,4 -4,-214 268.5,-214 268.5,4 -4,4"/>
<!-- 1298632191808 -->
<g id="node1" class="node">
<title>1298632191808</title>
<ellipse fill="none" stroke="black" cx="167.5" cy="-192" rx="40.09" ry="18"/>
<text text-anchor="middle" x="167.5" y="-188.3" font-family="Times New Roman,serif" font-size="14.00">Outlook</text>
</g>
<!-- 1298632234112 -->
<g id="node2" class="node">
<title>1298632234112</title>
<ellipse fill="none" stroke="black" cx="74.5" cy="-105" rx="44.39" ry="18"/>
<text text-anchor="middle" x="74.5" y="-101.3" font-family="Times New Roman,serif" font-size="14.00">Humidity</text>
</g>
<!-- 1298632191808&#45;&gt;1298632234112 -->
<g id="edge1" class="edge">
<title>1298632191808&#45;&gt;1298632234112</title>
<path fill="none" stroke="black" d="M149.85,-175.81C142.84,-169.71 134.74,-162.58 127.5,-156 117.94,-147.32 107.58,-137.61 98.57,-129.07"/>
<polygon fill="black" stroke="black" points="100.72,-126.28 91.06,-121.92 95.89,-131.35 100.72,-126.28"/>
<text text-anchor="middle" x="145.5" y="-144.8" font-family="Times New Roman,serif" font-size="14.00">Sunny</text>
</g>
<!-- 1298632025072 -->
<g id="node4" class="node">
<title>1298632025072</title>
<polygon fill="none" stroke="black" points="224.5,-36 148.5,-36 148.5,0 224.5,0 224.5,-36"/>
<text text-anchor="middle" x="186.5" y="-14.3" font-family="Times New Roman,serif" font-size="14.00">Class: Yes</text>
</g>
<!-- 1298632191808&#45;&gt;1298632025072 -->
<g id="edge4" class="edge">
<title>1298632191808&#45;&gt;1298632025072</title>
<path fill="none" stroke="black" d="M183.37,-175.32C188.45,-169.62 193.73,-162.88 197.5,-156 216.48,-121.38 212.6,-108.38 215.5,-69 215.99,-62.35 217.76,-60.27 215.5,-54 214.31,-50.71 212.67,-47.51 210.76,-44.46"/>
<polygon fill="black" stroke="black" points="213.56,-42.37 204.84,-36.36 207.91,-46.5 213.56,-42.37"/>
<text text-anchor="middle" x="239" y="-101.3" font-family="Times New Roman,serif" font-size="14.00">Overcast</text>
</g>
<!-- 1298632217152 -->
<g id="node5" class="node">
<title>1298632217152</title>
<ellipse fill="none" stroke="black" cx="167.5" cy="-105" rx="30.59" ry="18"/>
<text text-anchor="middle" x="167.5" y="-101.3" font-family="Times New Roman,serif" font-size="14.00">Wind</text>
</g>
<!-- 1298632191808&#45;&gt;1298632217152 -->
<g id="edge5" class="edge">
<title>1298632191808&#45;&gt;1298632217152</title>
<path fill="none" stroke="black" d="M167.5,-173.8C167.5,-162.16 167.5,-146.55 167.5,-133.24"/>
<polygon fill="black" stroke="black" points="171,-133.18 167.5,-123.18 164,-133.18 171,-133.18"/>
<text text-anchor="middle" x="180.5" y="-144.8" font-family="Times New Roman,serif" font-size="14.00">Rain</text>
</g>
<!-- 1298632025008 -->
<g id="node3" class="node">
<title>1298632025008</title>
<polygon fill="none" stroke="black" points="71,-36 0,-36 0,0 71,0 71,-36"/>
<text text-anchor="middle" x="35.5" y="-14.3" font-family="Times New Roman,serif" font-size="14.00">Class: No</text>
</g>
<!-- 1298632234112&#45;&gt;1298632025008 -->
<g id="edge2" class="edge">
<title>1298632234112&#45;&gt;1298632025008</title>
<path fill="none" stroke="black" d="M40.56,-93.18C29.29,-87.79 17.97,-80 11.5,-69 6.96,-61.28 8.88,-52.57 13.18,-44.61"/>
<polygon fill="black" stroke="black" points="16.25,-46.31 18.81,-36.03 10.4,-42.47 16.25,-46.31"/>
<text text-anchor="middle" x="25" y="-57.8" font-family="Times New Roman,serif" font-size="14.00">High</text>
</g>
<!-- 1298632234112&#45;&gt;1298632025072 -->
<g id="edge3" class="edge">
<title>1298632234112&#45;&gt;1298632025072</title>
<path fill="none" stroke="black" d="M91.01,-87.9C101.84,-77.69 116.53,-64.48 130.5,-54 136.11,-49.79 142.23,-45.6 148.3,-41.65"/>
<polygon fill="black" stroke="black" points="150.53,-44.38 157.1,-36.07 146.78,-38.47 150.53,-44.38"/>
<text text-anchor="middle" x="151.5" y="-57.8" font-family="Times New Roman,serif" font-size="14.00">Normal</text>
</g>
<!-- 1298632217152&#45;&gt;1298632025008 -->
<g id="edge7" class="edge">
<title>1298632217152&#45;&gt;1298632025008</title>
<path fill="none" stroke="black" d="M143.53,-93.39C138.28,-91.19 132.73,-88.95 127.5,-87 103,-77.88 92.64,-84.38 71.5,-69 62.68,-62.58 55.17,-53.34 49.33,-44.54"/>
<polygon fill="black" stroke="black" points="52.3,-42.68 44.06,-36.02 46.34,-46.36 52.3,-42.68"/>
<text text-anchor="middle" x="90.5" y="-57.8" font-family="Times New Roman,serif" font-size="14.00">Strong</text>
</g>
<!-- 1298632217152&#45;&gt;1298632025072 -->
<g id="edge6" class="edge">
<title>1298632217152&#45;&gt;1298632025072</title>
<path fill="none" stroke="black" d="M171.34,-86.8C173.95,-75.16 177.44,-59.55 180.41,-46.24"/>
<polygon fill="black" stroke="black" points="183.89,-46.7 182.66,-36.18 177.06,-45.17 183.89,-46.7"/>
<text text-anchor="middle" x="195" y="-57.8" font-family="Times New Roman,serif" font-size="14.00">Weak</text>
</g>
</g>
</svg>
